PathFileType  4	(X/Y/Z) C:\Users\antoi\Documents\MyRepositories\mobilecap\ResultsAnalysis
DataRate	CameraRate	NumFrames	NumMarkers	Units	OrigDataRate	OrigDataStartFrame	OrigNumFrames
100.0	100.0	5	51	mm	100.0	109	145
Frame#	Time	r_knee			r_shank_antsup			r_ankle			r_calc			r_5meta			r_toe			L_knee			L_shank_antsup			L_ankle			L_calc			L_5meta			L_toe			r_sh2			r_sh3			r_sh4			L_sh2			L_sh3			r_thigh1			r_thigh2			r_thigh3			r_thigh4			r_thigh5			L_thigh1			L_thigh2			L_thigh3			L_thigh4			r.ASIS			r.PSIS			L.ASIS			L.PSIS			C7			R_Shoulder			L_Shoulder			R_Sternum			L_Sternum			R_humerus			R_elbow_med			R_elbow_lat			R_forearm			R_wrist_radius			R_wrist_ulna			L_humerus			L_elbow_med			L_elbow_lat			L_forearm			L_wrist_radius			L_wrist_ulna			R_HJC			L_HJC			R_HJC_reg			L_HJC_reg			
		X1	Y1	Z1	X2	Y2	Z2	X3	Y3	Z3	X4	Y4	Z4	X5	Y5	Z5	X6	Y6	Z6	X7	Y7	Z7	X8	Y8	Z8	X9	Y9	Z9	X10	Y10	Z10	X11	Y11	Z11	X12	Y12	Z12	X13	Y13	Z13	X14	Y14	Z14	X15	Y15	Z15	X16	Y16	Z16	X17	Y17	Z17	X18	Y18	Z18	X19	Y19	Z19	X20	Y20	Z20	X21	Y21	Z21	X22	Y22	Z22	X23	Y23	Z23	X24	Y24	Z24	X25	Y25	Z25	X26	Y26	Z26	X27	Y27	Z27	X28	Y28	Z28	X29	Y29	Z29	X30	Y30	Z30	X31	Y31	Z31	X32	Y32	Z32	X33	Y33	Z33	X34	Y34	Z34	X35	Y35	Z35	X36	Y36	Z36	X37	Y37	Z37	X38	Y38	Z38	X39	Y39	Z39	X40	Y40	Z40	X41	Y41	Z41	X42	Y42	Z42	X43	Y43	Z43	X44	Y44	Z44	X45	Y45	Z45	X46	Y46	Z46	X47	Y47	Z47	X48	Y48	Z48	X49	Y49	Z49	X50	Y50	Z50	X51	Y51	Z51	

109	1.08000000	1190.06460	506.63256	-83.88064	1245.54933	457.18195	-99.33479	1278.92020	111.50016	-112.06597	1220.53632	68.84876	-150.81063	1396.96263	74.04634	-87.80315	1434.22417	121.79937	-138.78765	922.57185	489.55136	-348.30088	933.59495	391.41778	-346.08567	815.69962	101.41443	-294.37879	745.43247	66.75022	-243.76372	914.13937	39.55908	-340.12437	957.85644	59.68702	-286.34365	1251.25378	341.84030	-79.56507	1162.18263	448.12186	-74.08880	1176.37622	334.56188	-76.83728	844.87427	418.84009	-347.52138	822.21231	297.61094	-343.78797	1121.51507	821.93300	-59.06703	1163.84398	716.21075	-66.98979	1120.63481	675.17238	-32.30816	1017.55296	778.29845	-34.87177	1063.19369	670.06454	-44.88397	893.09035	763.89221	-374.90852	881.90112	625.94039	-346.69879	1004.17403	744.93032	-411.47561	988.53526	612.39480	-376.84349	1098.39789	960.40853	-110.35312	905.28289	1000.84456	-172.12710	1091.49746	936.61002	-359.19036	893.16055	1006.05337	-272.52244	897.95417	1404.04538	-270.28561	990.34969	1386.21705	-85.55724	994.44347	1369.99204	-442.99215	1036.51319	1381.52071	-242.65648	1042.74729	1380.76354	-283.85744	978.43710	1253.59476	-14.58306	924.33694	1043.31064	-60.50327	913.28626	1066.61568	7.11302	953.17317	946.57249	67.19923	962.40264	817.45967	104.64367	934.48231	818.54508	113.78940	1054.12018	1269.09816	-497.10113	1116.13267	1037.84648	-443.49248	1138.15755	1072.23605	-513.25110	1247.00605	1037.54654	-493.07787	1375.37904	944.25650	-478.32473	1360.86244	926.86664	-505.63069	1018.27822	882.06958	-121.88073	1004.38483	871.57837	-327.61719	1031.60978	870.94139	-140.55565	1011.85184	879.43047	-304.19225	
110	1.09000000	1196.04443	502.97349	-85.82930	1254.24363	456.48437	-100.48106	1304.00710	112.37197	-113.52237	1248.35749	66.75398	-152.57349	1423.90317	80.44559	-88.70494	1458.90884	130.49529	-139.19228	927.77293	489.11162	-348.52059	937.72974	390.79171	-346.32573	816.33774	101.99816	-294.52058	745.71798	67.44887	-243.84140	914.29644	39.43258	-340.20203	957.84302	59.39897	-286.39733	1264.64917	341.52014	-80.96378	1170.81571	443.80598	-76.89728	1189.97778	330.99520	-79.73633	849.59303	419.14698	-347.93950	825.24311	298.22057	-344.01995	1129.45443	817.71444	-57.82177	1170.20830	711.27124	-66.60350	1125.77170	670.46820	-33.28485	1024.60371	775.29129	-36.20296	1068.79171	666.49868	-47.18107	901.38082	763.66030	-374.60456	888.64148	625.99424	-346.78942	1012.24307	743.55765	-411.78424	995.19486	611.21917	-377.03377	1108.85717	958.29648	-110.07905	915.76598	998.88897	-171.62011	1101.49285	934.79354	-358.93210	903.41946	1004.36040	-272.01658	908.50025	1402.25957	-269.76791	1001.71893	1384.78273	-85.30220	1004.69125	1368.00263	-442.69239	1047.18394	1379.79879	-242.51178	1053.31627	1378.96264	-283.62601	988.74539	1252.50084	-14.04776	930.84214	1043.15129	-59.67808	920.10002	1066.75631	7.71752	957.35616	946.16008	68.18641	963.79538	816.73124	105.74096	933.56770	818.22622	115.11621	1065.07347	1267.80480	-496.72216	1130.59000	1037.69158	-443.29156	1152.37121	1072.48843	-512.90489	1261.87083	1040.44792	-492.02899	1392.51862	950.60490	-476.41033	1378.49307	932.79279	-503.92495	1028.63332	880.02663	-121.63667	1014.45114	869.79675	-327.36631	1042.05542	868.73530	-140.35444	1021.94019	877.64931	-303.92518	
111	1.10000000	1202.46872	499.68789	-87.85122	1262.97055	455.72630	-101.80257	1326.50082	113.47036	-114.81672	1273.36707	65.21449	-154.11536	1447.78478	86.53284	-89.33813	1480.74404	138.44791	-139.47365	933.42638	488.61066	-348.68446	942.23539	390.06564	-346.53326	817.09893	102.67859	-294.70219	746.07235	68.33201	-243.94403	914.46416	39.28672	-340.28026	957.93458	59.13551	-286.40305	1277.38064	341.25937	-82.46090	1179.84234	439.93668	-79.63591	1203.01834	328.00988	-82.47714	854.78235	419.40276	-348.32726	828.58635	298.85496	-344.23052	1137.40622	813.60144	-56.42275	1176.68642	706.55026	-66.06191	1130.99269	665.97446	-34.24690	1031.67996	772.43833	-37.80395	1074.48441	663.20278	-49.52601	909.90038	763.42253	-374.15923	895.72539	625.93694	-346.69197	1020.48984	742.14311	-412.05058	1002.09456	610.04380	-377.21306	1119.49319	956.17030	-109.76148	926.35351	996.92266	-171.04296	1111.57428	932.96175	-358.67517	913.74696	1002.62824	-271.42733	919.14653	1400.45017	-269.08625	1013.26226	1383.25757	-84.91267	1014.99377	1365.98340	-442.32877	1057.97527	1378.06942	-242.26486	1063.98144	1377.17610	-283.29422	999.32439	1251.27943	-13.43109	937.61596	1042.92379	-58.78560	927.25267	1066.81579	8.38716	961.91590	945.69707	69.16430	965.61869	815.94563	106.74713	933.41277	817.90369	116.27509	1075.96144	1266.32120	-496.22657	1144.77858	1037.36243	-442.88634	1166.26286	1072.51416	-512.38334	1276.28632	1042.99691	-490.87942	1409.03780	956.50974	-474.45528	1395.52237	938.33644	-502.07068	1039.14179	877.97059	-121.34728	1024.60573	867.99276	-327.06420	1052.65194	866.53178	-140.07007	1032.11529	875.82675	-303.60030	
112	1.11000000	1209.59324	496.84735	-89.84858	1271.87522	454.84237	-103.25789	1346.08483	114.40869	-116.04503	1295.10626	63.92639	-155.52426	1468.29524	91.74005	-89.77420	1499.56607	144.98733	-139.74114	939.57356	488.04471	-348.78663	947.14570	389.24568	-346.70183	818.00064	103.47685	-294.92624	746.50527	69.44491	-244.07146	914.63410	39.13258	-340.36401	958.11752	58.88417	-286.37869	1289.51658	340.90631	-84.05754	1189.35384	436.59083	-82.17953	1215.49589	325.53529	-84.92272	860.37519	419.65359	-348.62253	832.26089	299.52795	-344.41156	1145.56805	809.79135	-54.99766	1183.59312	702.29549	-65.46256	1136.71828	661.90610	-35.19565	1039.05011	769.84350	-39.60823	1080.58846	660.29146	-51.90223	918.72314	763.24804	-373.69056	903.18755	625.76171	-346.40353	1028.94055	740.70460	-412.25739	1009.27740	608.86922	-377.36825	1130.27671	954.04478	-109.43294	937.03229	995.00665	-170.39334	1121.72561	931.13928	-358.44793	924.14312	1000.90247	-270.75411	929.89271	1398.65651	-268.25689	1024.93634	1381.67628	-84.39207	1025.37489	1363.97651	-441.88683	1068.88336	1376.36159	-241.90885	1074.74650	1375.43914	-282.85594	1010.14014	1249.96720	-12.74016	944.71261	1042.64098	-57.84978	934.76408	1066.79226	9.11787	966.87053	945.19397	70.13472	967.89271	815.15488	107.71293	934.33322	817.66828	117.30418	1086.80933	1264.69349	-495.62658	1158.67118	1036.86059	-442.27446	1179.80998	1072.31398	-511.68984	1290.23988	1045.18772	-489.63770	1424.91537	961.93872	-472.47384	1411.92144	943.45794	-500.07749	1049.77732	875.93031	-121.03144	1034.81183	866.20542	-326.72926	1063.34346	864.38925	-139.72675	1042.34304	873.99596	-303.24268	
113	1.12000000	1217.59220	494.46051	-91.71306	1281.06550	453.75601	-104.79187	1362.53616	114.82740	-117.32134	1313.23565	62.62849	-156.91676	1485.25129	95.52904	-90.13535	1515.32278	149.54415	-140.10872	946.21704	487.42367	-348.82113	952.47971	388.35084	-346.82647	819.04881	104.42263	-295.19374	747.02807	70.83599	-244.23054	914.80914	38.98178	-340.45981	958.40167	58.63184	-286.36244	1301.09544	340.29716	-85.73437	1199.35306	433.79977	-84.40997	1227.37353	323.47240	-86.97724	866.30067	419.95770	-348.78228	836.27985	300.26221	-344.56040	1154.15407	806.46780	-53.69107	1191.22656	698.70285	-64.90721	1143.35092	658.43385	-36.11326	1047.02602	767.56601	-41.45319	1087.43677	657.82998	-54.21415	927.88803	763.14986	-373.25556	911.04592	625.48447	-345.93941	1037.60973	739.26706	-412.39852	1016.78149	607.70058	-377.49072	1141.17519	951.93649	-109.12420	947.79256	993.19682	-169.68101	1131.93126	929.34969	-358.27363	934.61652	999.22600	-270.01333	940.74080	1396.91691	-267.30225	1036.70026	1380.07745	-83.74783	1035.86154	1362.02361	-441.34702	1079.90293	1374.70152	-241.43928	1085.61481	1373.77904	-282.30811	1021.14747	1248.60848	-11.98195	952.18034	1042.32208	-56.89282	942.64927	1066.69286	9.90979	972.24782	944.66247	71.09758	970.63744	814.40304	108.67341	936.36802	817.55738	118.24581	1097.63914	1262.98033	-494.92939	1172.22539	1036.20090	-441.46102	1192.98753	1071.89750	-510.83401	1303.72507	1047.02100	-488.31095	1440.13485	966.86026	-470.47772	1427.65464	948.11480	-497.98152	1060.51086	873.93474	-120.71083	1045.04105	864.47048	-326.38321	1074.07264	862.36183	-139.35212	1052.59710	872.18946	-302.87994	
